Coordinates
version=1
nRows=6
nColumns=36
inDegrees=yes

Units are S.I. units (second, meters, Newtons, ...)
If the header above contains a line with 'inDegrees', this indicates whether rotational values are in degrees (yes) or radians (no).

endheader
time	pelvis_tilt	pelvis_list	pelvis_rotation	pelvis_tx	pelvis_ty	pelvis_tz	hip_flexion_r	hip_adduction_r	hip_rotation_r	knee_angle_r	knee_angle_r_beta	ankle_angle_r	subtalar_angle_r	mtp_angle_r	hip_flexion_l	hip_adduction_l	hip_rotation_l	knee_angle_l	knee_angle_l_beta	ankle_angle_l	subtalar_angle_l	mtp_angle_l	lumbar_extension	lumbar_bending	lumbar_rotation	arm_flex_r	arm_add_r	arm_rot_r	elbow_flex_r	pro_sup_r	arm_flex_l	arm_add_l	arm_rot_l	elbow_flex_l	pro_sup_l
      1.68333330	     -2.25378837	      0.69238726	     -0.21436156	      0.00353353	      1.31051061	      0.03893715	      2.19496456	     -0.22354543	      3.85050723	      0.60649989	      0.01058542	      7.31085369	     -1.89747712	     -7.49999987	      2.12561836	      0.93146662	     -7.79933282	      0.34939845	      0.00609815	      5.46241980	      1.58579605	     -7.49999987	     -1.07589457	     -0.63867521	     -1.72433476	     -0.49084545	     -6.89683708	     13.42641016	     27.71691474	     86.58198034	     -0.64609530	     -7.66933302	     15.74640068	     26.84122045	     91.17106073
      1.70000000	     -2.31367037	      0.69321851	     -0.24047425	      0.00238394	      1.31261183	      0.03823145	      2.34111287	     -0.26307711	      3.74663811	      0.66055860	      0.01152892	      7.20474343	     -1.81981255	     -7.49999987	      2.26700827	      0.94819605	     -7.72449151	      0.35813799	      0.00625069	      5.35016593	      1.36187748	     -7.49999987	     -1.27676533	     -0.60571597	     -1.66749495	     -0.51856039	     -7.06397827	     13.43309824	     27.83962342	     84.57095730	     -0.75567484	     -7.75421595	     15.67765479	     26.96040079	     88.78230356
      1.71666670	     -2.50929502	      0.69960679	     -0.21280825	      0.00200101	      1.31105742	      0.03783446	      2.63712394	     -0.30034773	      3.74911585	      0.69816335	      0.01218525	      7.17367491	     -1.80524853	     -7.49999987	      2.57344330	      0.97525604	     -7.65968051	      0.38126061	      0.00665425	      5.43712672	      1.30569016	     -7.49999987	     -1.25470069	     -0.59709600	     -1.65683114	     -0.63511476	     -7.27626157	     13.40982562	     27.97400185	     84.43151440	     -0.95856422	     -7.91556516	     15.66292035	     27.07329578	     88.61784460
      1.73333330	     -2.57000591	      0.73805556	     -0.20480091	     -0.00114174	      1.30805549	      0.03857403	      2.80883996	     -0.36446253	      3.89239828	      0.77184495	      0.01347124	      7.04811347	     -2.05113294	     -7.49999987	      2.74861999	      1.04034837	     -7.56472372	      0.40249973	      0.00702495	      5.38673050	      1.03300355	     -7.49999987	     -1.48358780	     -0.63356288	     -1.54512945	     -0.60018471	     -7.40249436	     13.34459074	     27.80270971	     82.80671707	     -0.90035928	     -7.97701578	     15.50423813	     26.80772155	     86.68824848
      1.75000000	     -2.73503538	      0.78742821	     -0.14474089	      0.00012078	      1.30849500	      0.03782771	      3.06346198	     -0.44986847	      3.99568223	      0.86252678	      0.01505393	      6.90410743	     -2.35998982	     -7.49999987	      3.00895221	      1.10083058	     -7.37318728	      0.44016623	      0.00768235	      5.29386116	      0.60657985	     -7.49999987	     -1.53901163	     -0.66094605	     -1.52337665	     -0.75205597	     -7.53293067	     12.17814883	     27.83197459	     87.91368118	     -1.09594629	     -8.03712125	     13.95407020	     26.84558509	     93.10290950
      1.76666670	     -2.76740772	      0.82289771	     -0.08386331	      0.00032893	      1.31248405	      0.03772825	      3.15483056	     -0.52838329	      3.96649549	      0.96786085	      0.01689236	      6.82253809	     -2.29129097	     -7.49999987	      3.09627804	      1.12331944	     -7.25840168	      0.46465837	      0.00810982	      5.16274487	      0.43575611	     -7.49999987	     -1.84571363	     -0.66627259	     -1.47109467	     -0.98030604	     -7.72907059	     11.90085858	     28.10873248	     86.08072134	     -1.29487721	     -8.18448303	     13.63120063	     27.06883407	     90.76373644
